<?xml version="1.0" encoding="UTF-8"?>
<svg width="108px" height="100px" viewBox="0 0 108 100" version="1.1" xmlns="http://www.w3.org/2000/svg" xmlns:xlink="http://www.w3.org/1999/xlink">
    <!-- Generator: Sketch 63.1 (92452) - https://sketch.com -->
    <title>8b</title>
    <desc>Created with Sketch.</desc>
    <g id="Page-1" stroke="none" stroke-width="1" fill="none" fill-rule="evenodd" opacity="0.331519717">
        <g id="desktop" transform="translate(-463.000000, -68.000000)" fill="#5EB2FC">
            <path d="M571,132.927837 C571.007739,138.159721 566.737771,142.403875 561.498343,142.403875 C556.244966,142.411591 551.990497,138.183642 551.982748,132.950987 C551.982748,132.82752 551.982748,132.681676 552.005221,132.558209 C550.215864,132.39616 548.433482,132.279639 546.642576,132.179322 C542.767832,141.139117 534.995096,148.053229 525.448503,150.846654 C525.409756,153.20023 525.331486,155.529885 525.207494,157.884233 C527.98181,157.922816 530.222187,160.168359 530.229937,162.930146 C530.229937,165.732059 527.950812,168 525.161772,168 C522.348708,168.007697 520.085858,165.739776 520.077333,162.938634 C520.077333,160.954685 521.209533,159.234645 522.891172,158.415909 C522.371957,156.208949 521.837242,153.97884 521.279279,151.77188 C519.59764,152.042734 517.854005,152.180862 516.087122,152.188578 C509.267574,152.188578 502.943992,150.151384 497.658067,146.664233 C496.7754,147.296226 495.891183,147.913558 494.993018,148.523173 C495.380492,149.117354 495.612977,149.835002 495.612977,150.614383 C495.612977,152.821343 493.807346,154.604659 491.590218,154.604659 C489.37464,154.604659 487.583733,152.82906 487.583733,150.622871 C487.576759,148.408195 489.366115,146.609445 491.583243,146.609445 C492.133457,146.609445 492.668172,146.725195 493.140115,146.933544 C493.760074,146.177313 494.310288,145.397932 494.845778,144.603118 C488.614415,139.47155 484.29795,132.133794 483.09678,123.791331 C481.369419,123.590698 479.625785,123.413215 477.858901,123.251166 C476.177263,126.708222 472.13203,128.444467 468.372754,127.225237 C464.266301,125.860163 462.041423,121.423093 463.397583,117.332501 C464.770017,113.24268 469.202724,111.028003 473.333201,112.39462 C476.045521,113.289751 477.935621,115.519089 478.509083,118.112653 C479.951263,117.703671 481.360895,117.317839 482.802299,116.946668 C483.127778,111.730218 484.662951,106.822432 487.142012,102.547412 C485.639387,100.517935 484.073215,98.4961743 482.453572,96.5137686 C482.104846,96.6596132 481.733645,96.7213463 481.346171,96.7213463 C479.454521,96.7213463 477.913148,95.1942226 477.913148,93.3337399 C477.913148,91.450879 479.446771,89.9160386 481.338421,89.9160386 C483.206048,89.9075503 484.747421,91.4431623 484.747421,93.3267949 C484.747421,93.9202048 484.584681,94.4680865 484.29795,94.9627233 C486.064834,96.2514027 487.85574,97.5161606 489.621848,98.821045 C495.71372,90.9423522 505.261089,85.8563126 516.017377,85.8485959 C518.628954,85.8485959 521.170011,86.149545 523.595601,86.7205766 C524.293829,85.1849646 524.951761,83.6501243 525.603493,82.0983073 C523.874582,80.6475783 522.76718,78.4637683 522.76718,76.0098757 C522.759431,71.5882391 526.347444,68.0084883 530.787125,68 C535.219832,68 538.816369,71.5728058 538.824118,75.9867258 C538.831093,80.4083624 535.236106,83.9888849 530.803399,83.9973732 C530.368653,83.9973732 529.919182,83.9503017 529.509234,83.8962852 C529.244977,85.386369 529.020242,86.8826261 528.795507,88.3727099 C536.724007,91.6129285 543.117334,97.8479762 546.558106,105.657219 C547.619011,105.287592 548.689215,104.893272 549.758645,104.485061 C549.510661,103.789792 549.362646,103.034332 549.362646,102.25418 C549.362646,98.6589954 552.291952,95.7343876 555.910963,95.7258993 C559.522224,95.7258993 562.460054,98.6427905 562.467029,102.246463 C562.467029,105.842419 559.538498,108.767026 555.918712,108.774743 C554.260322,108.774743 552.718174,108.141978 551.564275,107.124153 C550.331332,107.795501 549.123187,108.497716 547.891018,109.168292 C548.859704,112.278099 549.37892,115.565389 549.37892,118.984634 C549.385894,121.847509 549.014694,124.624728 548.340489,127.28697 C549.921384,127.696724 551.524753,128.104935 553.105648,128.490767 C554.686544,125.504426 557.848335,123.474949 561.483619,123.467232 C566.721498,123.467232 570.991465,127.696724 571,132.927837" id="8b"></path>
        </g>
    </g>
</svg>